<mxfile host="app.diagrams.net" agent="Mozilla/5.0 (X11; Linux x86_64; rv:141.0) Gecko/20100101 Firefox/141.0" version="28.1.0">
  <diagram name="Page-1" id="dXEw8Ugeuqkzr5Z7Odu2">
    <mxGraphModel dx="2188" dy="808" grid="1" gridSize="10" guides="1" tooltips="1" connect="1" arrows="1" fold="1" page="1" pageScale="1" pageWidth="850" pageHeight="1100" math="0" shadow="0">
      <root>
        <mxCell id="0" />
        <mxCell id="1" parent="0" />
        <mxCell id="iZvSBJwFrLveL1Va7kET-1" value="Phần mềm quản lý đặt sân bóng đá" style="html=1;whiteSpace=wrap;fillColor=#ffe6cc;strokeColor=#d79b00;" vertex="1" parent="1">
          <mxGeometry x="220" y="70" width="360" height="50" as="geometry" />
        </mxCell>
        <mxCell id="iZvSBJwFrLveL1Va7kET-3" value="Quản lý sân bóng" style="rounded=0;whiteSpace=wrap;html=1;" vertex="1" parent="1">
          <mxGeometry x="-370" y="180" width="180" height="60" as="geometry" />
        </mxCell>
        <mxCell id="iZvSBJwFrLveL1Va7kET-4" value="Quản lý đặt sân" style="rounded=0;whiteSpace=wrap;html=1;" vertex="1" parent="1">
          <mxGeometry x="-80" y="180" width="180" height="60" as="geometry" />
        </mxCell>
        <mxCell id="iZvSBJwFrLveL1Va7kET-5" value="Sân bóng" style="rounded=0;whiteSpace=wrap;html=1;" vertex="1" parent="1">
          <mxGeometry x="190" y="180" width="180" height="60" as="geometry" />
        </mxCell>
        <mxCell id="iZvSBJwFrLveL1Va7kET-6" value="Sân bóng" style="rounded=0;whiteSpace=wrap;html=1;" vertex="1" parent="1">
          <mxGeometry x="440" y="180" width="180" height="60" as="geometry" />
        </mxCell>
        <mxCell id="iZvSBJwFrLveL1Va7kET-7" value="Sân bóng" style="rounded=0;whiteSpace=wrap;html=1;" vertex="1" parent="1">
          <mxGeometry x="680" y="180" width="180" height="60" as="geometry" />
        </mxCell>
        <mxCell id="iZvSBJwFrLveL1Va7kET-8" value="Sân bóng" style="rounded=0;whiteSpace=wrap;html=1;" vertex="1" parent="1">
          <mxGeometry x="920" y="180" width="180" height="60" as="geometry" />
        </mxCell>
        <mxCell id="iZvSBJwFrLveL1Va7kET-9" value="" style="endArrow=none;html=1;rounded=0;" edge="1" parent="1">
          <mxGeometry width="50" height="50" relative="1" as="geometry">
            <mxPoint x="-280" y="150" as="sourcePoint" />
            <mxPoint x="888" y="150" as="targetPoint" />
          </mxGeometry>
        </mxCell>
        <mxCell id="iZvSBJwFrLveL1Va7kET-10" value="" style="endArrow=none;html=1;rounded=0;exitX=0.5;exitY=0;exitDx=0;exitDy=0;" edge="1" parent="1" source="iZvSBJwFrLveL1Va7kET-3">
          <mxGeometry width="50" height="50" relative="1" as="geometry">
            <mxPoint x="-70" y="450" as="sourcePoint" />
            <mxPoint x="-280" y="150" as="targetPoint" />
          </mxGeometry>
        </mxCell>
        <mxCell id="iZvSBJwFrLveL1Va7kET-11" value="Thêm sân mới" style="rounded=0;whiteSpace=wrap;html=1;" vertex="1" parent="1">
          <mxGeometry x="-330" y="300" width="140" height="60" as="geometry" />
        </mxCell>
        <mxCell id="iZvSBJwFrLveL1Va7kET-12" value="Cập nhật thông tin sân" style="rounded=0;whiteSpace=wrap;html=1;" vertex="1" parent="1">
          <mxGeometry x="-330" y="410" width="140" height="60" as="geometry" />
        </mxCell>
        <mxCell id="iZvSBJwFrLveL1Va7kET-13" value="Xem tình trạng sân" style="rounded=0;whiteSpace=wrap;html=1;" vertex="1" parent="1">
          <mxGeometry x="-330" y="510" width="140" height="60" as="geometry" />
        </mxCell>
        <mxCell id="iZvSBJwFrLveL1Va7kET-14" value="Xem lịch trống" style="rounded=0;whiteSpace=wrap;html=1;" vertex="1" parent="1">
          <mxGeometry x="-40" y="300" width="140" height="60" as="geometry" />
        </mxCell>
        <mxCell id="iZvSBJwFrLveL1Va7kET-15" value="Thêm sân mới" style="rounded=0;whiteSpace=wrap;html=1;" vertex="1" parent="1">
          <mxGeometry x="-40" y="410" width="140" height="60" as="geometry" />
        </mxCell>
        <mxCell id="iZvSBJwFrLveL1Va7kET-16" value="Thêm sân mới" style="rounded=0;whiteSpace=wrap;html=1;" vertex="1" parent="1">
          <mxGeometry x="-40" y="510" width="140" height="60" as="geometry" />
        </mxCell>
      </root>
    </mxGraphModel>
  </diagram>
</mxfile>
